<?xml version="1.0" encoding="UTF-8"?>
<svg xmlns="http://www.w3.org/2000/svg" xmlns:xlink="http://www.w3.org/1999/xlink" version="1.1" id="Ebene_2" x="0px" y="0px" viewBox="0 0 210 58" style="enable-background:new 0 0 210 58;" xml:space="preserve">
<style type="text/css">
	.st0{fill:#AD1D27;}
	.st1{fill:#0068B2;}
	.st2{fill:#FFFFFF;}
</style>
<g>
	<path class="st0" d="M116.1,6.4c0-2-1.6-3.6-3.6-3.6c-2,0-3.6,1.6-3.6,3.6s1.6,3.6,3.6,3.6C114.4,10,116.1,8.4,116.1,6.4L116.1,6.4   z"></path>
</g>
<g>
	<path class="st1" d="M7.5,6.3c0-2-1.6-3.6-3.6-3.6c-2,0-3.6,1.6-3.6,3.6c0,2,1.6,3.6,3.6,3.6C5.9,10,7.5,8.3,7.5,6.3L7.5,6.3z"></path>
</g>
<g>
	<g>
		<path class="st2" d="M29.5,17.1c1.5-2.2,3.8-3.5,6.4-3.5c5.2,0,7.6,2.8,7.6,7.5v14.1h-5.8V23.1c0-2.8-0.4-4.9-3.5-4.9    c-2.7,0-3.8,1.9-3.8,5.3v11.7h-5.8V22.8c0-2.7-0.4-4.6-3.5-4.6c-1.3,0-3.9,0.9-3.9,4.8v12.2h-5.8V14.2h5.4v2.8H17    c1.6-2.3,3.8-3.4,6.4-3.4C26.5,13.7,28.6,15,29.5,17.1z"></path>
	</g>
	<g>
		<path class="st2" d="M67.5,25c0,0.3,0,1.1,0,1.1H52.4c0.2,3.6,1.8,5.3,5.1,5.3c2.2,0,4.1-1.3,4.6-2.7h5.1c-1.5,4.7-4.8,7-9.8,7    c-6.6,0-10.7-4.6-10.7-11c0-6.3,4.4-11.1,10.7-11.1C63.9,13.7,67.5,18.8,67.5,25z M61.7,22.4c-0.6-3.2-1.9-4.5-4.6-4.5    c-2.8,0-4.5,1.7-4.7,4.5H61.7z"></path>
	</g>
	<g>
		<path class="st2" d="M88.3,20.3h-5.5c-0.2-2-1.5-2.8-3.9-2.8c-2.2,0-3.2,0.7-3.2,1.9c0,1.3,1.3,2,4.5,2.7c4.3,0.9,5.8,1.5,7,2.6    c1.1,1,1.6,2.2,1.6,3.8c0,5.4-4.7,7.3-9.6,7.3c-5.7,0-9.7-2.4-9.8-7.4h5.5c0,2.3,2,3.5,4.4,3.5c1.9,0,3.8-0.9,3.8-2.7    c0-1.5-1.8-2.3-6.3-3.2c-4.9-1-6.8-2.6-6.8-5.6c0-4.5,3.2-6.7,9.1-6.7C84.7,13.7,87.9,16,88.3,20.3z"></path>
	</g>
	<g>
		<path class="st2" d="M104.8,21.6v4.9H92.6v-4.9H104.8z"></path>
	</g>
</g>
<g>
	<g>
		<path class="st2" d="M139.2,21.6h-5.6c-0.4-2.4-1.8-3.6-4.3-3.6c-3.5,0-4.9,3.4-4.9,6.8c0,3.4,1.4,6.6,4.8,6.6    c2.6,0,4.2-1.5,4.6-4.3h5.5c-0.8,5.5-4.5,8.6-10.1,8.6c-6.5,0-10.6-4.7-10.6-10.7c0-6.7,4.1-11.3,10.7-11.3    C134.7,13.7,138.9,16.6,139.2,21.6z"></path>
	</g>
	<g>
		<path class="st2" d="M163.2,24.7c0,6.8-4.4,11-10.9,11c-6.6,0-10.8-4.4-10.8-11c0-6.7,4.3-11.1,10.8-11.1    C159,13.7,163.2,18.1,163.2,24.7z M152.4,31.4c3.4,0,5.1-2.6,5.1-6.7c0-3.4-1.2-6.7-5.1-6.7c-3.2,0-5,2.4-5,6.7    C147.3,29,149.1,31.4,152.4,31.4z"></path>
	</g>
	<g>
		<path class="st2" d="M179.2,13.9v5.3c-0.6-0.1-1.3-0.2-2.1-0.2c-4.2,0-5.7,2.9-5.7,6.7v9.4h-5.8V14.2h5.5v3.9h0.1    c1.1-2.6,3.8-4.5,6.7-4.5C178.5,13.7,178.9,13.8,179.2,13.9z"></path>
	</g>
	<g>
		<path class="st2" d="M201,25c0,0.3,0,1.1,0,1.1h-15.1c0.2,3.6,1.8,5.3,5.1,5.3c2.2,0,4.1-1.3,4.6-2.7h5.1c-1.5,4.7-4.8,7-9.8,7    c-6.6,0-10.7-4.6-10.7-11c0-6.3,4.4-11.1,10.7-11.1C197.4,13.7,201,18.8,201,25z M195.2,22.4c-0.6-3.2-1.9-4.5-4.6-4.5    c-2.8,0-4.5,1.7-4.7,4.5H195.2z"></path>
	</g>
</g>
<g>
	<path class="st2" d="M208.3,4.1c0.9,0.9,1.3,2,1.3,3.2c0,1.3-0.5,2.4-1.3,3.3c-0.9,0.9-2,1.3-3.2,1.3c-1.3,0-2.4-0.5-3.3-1.3   c-0.9-0.9-1.3-2-1.3-3.2c0-1.3,0.5-2.3,1.4-3.2c0.9-0.9,2-1.3,3.2-1.3C206.4,2.8,207.4,3.3,208.3,4.1z M202.4,10.1   c0.7,0.7,1.6,1.1,2.7,1.1c1.1,0,2-0.4,2.7-1.1c0.7-0.8,1.1-1.7,1.1-2.8c0-1.1-0.4-2-1.1-2.7c-0.7-0.7-1.6-1.1-2.7-1.1   c-1.1,0-2,0.4-2.7,1.1c-0.7,0.7-1.1,1.7-1.1,2.8C201.3,8.5,201.7,9.4,202.4,10.1z M205.4,4.7c1.2,0,1.8,0.5,1.8,1.5   c0,0.8-0.4,1.3-1.4,1.5l1.5,2.4h-0.9L205,7.7h-0.9V10h-0.8V4.7H205.4z M205.1,7.1c1,0,1.3-0.2,1.3-0.9c0-0.6-0.4-0.8-1.1-0.8h-1.1   v1.7H205.1z"></path>
</g>
<g>
	<path class="st2" d="M4.8,44.4c3.3,0,5.2,1.7,5.2,5.1c0,3.8-1.8,5.6-5.2,5.6H1V44.4H4.8z M4.9,53.8c2.2,0,3.7-1.4,3.7-4.2   c0-2.8-1.2-4.1-3.6-4.1H2.4v8.2H4.9z"></path>
	<path class="st2" d="M18.3,48.3c0.6,0.8,0.9,1.8,0.9,3.1v0.1h-6v0.1c0,1.5,0.9,2.4,2.5,2.4c1.2,0,1.9-0.6,2.1-1.5h1.3   c-0.4,1.7-1.6,2.6-3.4,2.6c-0.8,0-1.5-0.2-2.1-0.5c-1.2-0.7-1.7-2.2-1.7-3.5c0-1.1,0.3-2.1,1.1-2.8c0.7-0.8,1.6-1.1,2.7-1.1   C16.7,47.1,17.6,47.5,18.3,48.3z M17.8,50.4c-0.1-1.2-1-2.2-2.3-2.2c-1.2,0-2.2,0.9-2.3,2.2H17.8z"></path>
	<path class="st2" d="M27.8,49.9V55h-1.3v-5.3c0-0.8-0.6-1.5-1.6-1.5c-1.5,0-2.4,1-2.4,2.4V55h-1.3v-7.7h1.2v1.2h0   c0.6-1,1.4-1.4,2.6-1.4C27,47.1,27.8,48.1,27.8,49.9z"></path>
	<path class="st2" d="M32.2,45v2.3h1.6v1.1h-1.6v4.8c0,0.4,0.1,0.6,0.4,0.6c0.3,0,0.5,0,0.8,0h0.4V55h-1.1c-1.5,0-1.8-0.4-1.8-1.6   v-5h-1.4v-1.1h1.4V45H32.2z"></path>
	<path class="st2" d="M42.2,49.2v4.4c0,0.3,0.1,0.4,0.4,0.4c0.1,0,0.3,0,0.4-0.1v1c-0.2,0.1-0.6,0.2-0.9,0.2c-0.7,0-1.1-0.4-1.1-1.2   c-0.7,0.8-1.6,1.2-2.8,1.2c-1.6,0-2.6-0.8-2.6-2.2c0-0.7,0.2-1.2,0.7-1.6c0.4-0.4,1.5-0.7,3.2-0.9c1.2-0.1,1.5-0.4,1.5-1   c0-0.8-0.5-1.3-1.8-1.3c-1.3,0-1.9,0.5-2,1.5h-1.3c0.1-1.7,1.3-2.6,3.4-2.6C41.5,47.1,42.2,48,42.2,49.2z M38.4,54   c1.5,0,2.4-0.9,2.4-1.7V51c-0.2,0.1-0.6,0.3-0.9,0.3l-1.3,0.2c-1.2,0.2-1.7,0.6-1.7,1.4C36.9,53.6,37.4,54,38.4,54z"></path>
	<path class="st2" d="M46.2,44.4V55h-1.3V44.4H46.2z"></path>
	<path class="st2" d="M59.9,46.5c0,1.1-0.7,2-2.1,2.8l2,2.3c0.2-0.5,0.3-1,0.4-1.7h1.3c-0.1,1.3-0.2,1.5-0.7,2.6l2.2,2.4h-1.7   l-1.2-1.3c-0.6,0.9-1.9,1.5-3.1,1.5c-1.1,0-2-0.3-2.6-0.8c-0.6-0.6-0.9-1.2-0.9-2.1c0-1.3,0.7-2.3,2.6-3.2l-0.5-0.7   c-0.5-0.6-0.7-1.1-0.7-1.8c0-1.2,1-2.2,2.5-2.2C58.7,44.4,59.9,45.2,59.9,46.5z M56.8,54c1,0,1.8-0.5,2.4-1.3l-2.5-2.9   c-1.4,0.7-1.9,1.4-1.9,2.4C54.7,53.3,55.7,54,56.8,54z M57.1,48.4c1.1-0.7,1.5-1.2,1.5-1.8c0-0.6-0.5-1.1-1.3-1.1   c-0.7,0-1.3,0.4-1.3,1.1C56,47.1,56.2,47.4,57.1,48.4z"></path>
	<path class="st2" d="M71.4,44.4l3.5,8.9l3.5-8.9h2V55H79v-8.8h0L75.5,55h-1.3l-3.5-8.8h0V55h-1.4V44.4H71.4z"></path>
	<path class="st2" d="M89.2,48.3c0.6,0.8,0.9,1.8,0.9,3.1v0.1h-6v0.1c0,1.5,0.9,2.4,2.5,2.4c1.2,0,1.9-0.6,2.1-1.5H90   c-0.4,1.7-1.6,2.6-3.4,2.6c-0.8,0-1.5-0.2-2.1-0.5c-1.2-0.7-1.7-2.2-1.7-3.5c0-1.1,0.3-2.1,1.1-2.8c0.7-0.8,1.6-1.1,2.7-1.1   C87.7,47.1,88.6,47.5,89.2,48.3z M88.8,50.4c-0.1-1.2-1-2.2-2.3-2.2c-1.2,0-2.2,0.9-2.3,2.2H88.8z"></path>
	<path class="st2" d="M99.3,44.4V55H98v-1h0c-0.4,0.8-1.4,1.2-2.6,1.2c-2.2,0-3.7-1.7-3.7-4c0-2.4,1.3-4,3.6-4c1,0,2.1,0.4,2.6,1.2   h0v-4H99.3z M95.6,54c1.6,0,2.4-1.2,2.4-2.9c0-1.7-0.9-2.9-2.5-2.9c-1.5,0-2.4,1.1-2.4,3C93.1,52.8,94,54,95.6,54z"></path>
	<path class="st2" d="M103.3,44.4v1.5H102v-1.5H103.3z M103.3,47.3V55H102v-7.7H103.3z"></path>
	<path class="st2" d="M112.8,49.8h-1.4c-0.2-1-0.9-1.5-2-1.5c-1.6,0-2.5,1.1-2.5,3c0,1.7,0.9,2.8,2.3,2.8c1.3,0,2-0.7,2.2-1.9h1.3   c-0.3,1.9-1.5,3-3.5,3c-2.3,0-3.7-1.5-3.7-3.9c0-2.5,1.4-4.1,3.8-4.1C111.3,47.1,112.6,48,112.8,49.8z"></path>
	<path class="st2" d="M121.2,49.2v4.4c0,0.3,0.1,0.4,0.4,0.4c0.1,0,0.3,0,0.4-0.1v1c-0.2,0.1-0.6,0.2-0.9,0.2   c-0.7,0-1.1-0.4-1.1-1.2c-0.7,0.8-1.6,1.2-2.8,1.2c-1.6,0-2.6-0.8-2.6-2.2c0-0.7,0.2-1.2,0.7-1.6c0.4-0.4,1.5-0.7,3.2-0.9   c1.2-0.1,1.5-0.4,1.5-1c0-0.8-0.5-1.3-1.8-1.3c-1.3,0-1.9,0.5-2,1.5h-1.3c0.1-1.7,1.3-2.6,3.4-2.6C120.5,47.1,121.2,48,121.2,49.2z    M117.4,54c1.5,0,2.4-0.9,2.4-1.7V51c-0.2,0.1-0.6,0.3-0.9,0.3l-1.3,0.2c-1.2,0.2-1.7,0.6-1.7,1.4C115.9,53.6,116.5,54,117.4,54z"></path>
	<path class="st2" d="M125.3,44.4V55h-1.3V44.4H125.3z"></path>
	<path class="st2" d="M140.8,47.5h-1.4c-0.2-1.5-1.1-2.2-2.7-2.2c-1.6,0-2.5,0.7-2.5,1.8c0,0.4,0.2,0.7,0.6,1c0.4,0.3,1.4,0.6,3,0.9   c2.4,0.5,3.5,1.4,3.5,3.1c0,1-0.4,1.8-1.3,2.3c-0.8,0.6-1.9,0.8-3,0.8c-2.6,0-4.6-1.3-4.6-3.8h1.4c0,1.6,1.3,2.6,3.2,2.6   c1.8,0,2.8-0.7,2.8-1.9c0-1-0.7-1.6-3.1-2c-1.6-0.3-2.6-0.7-3.2-1.1c-0.5-0.5-0.8-1.1-0.8-1.8c0-2,1.7-3.1,4-3.1   C139.2,44.1,140.8,45.3,140.8,47.5z"></path>
	<path class="st2" d="M150.8,51.1c0,2.4-1.5,4-3.9,4c-2.3,0-3.9-1.6-3.9-4s1.5-4,3.9-4C149.4,47.1,150.8,48.8,150.8,51.1z M146.9,54   c1.4,0,2.5-1.2,2.5-2.9s-1.1-2.9-2.5-2.9c-1.4,0-2.5,1.1-2.5,2.9C144.4,52.9,145.5,54,146.9,54z"></path>
	<path class="st2" d="M154.4,44.4V55h-1.3V44.4H154.4z"></path>
	<path class="st2" d="M158.4,47.3v5.2c0,0.9,0.6,1.5,1.6,1.5c1.5,0,2.4-1,2.4-2.4v-4.4h1.3V55h-1.2v-1.2h0c-0.6,1-1.5,1.4-2.6,1.4   c-1.9,0-2.8-0.9-2.8-2.7v-5.1H158.4z"></path>
	<path class="st2" d="M168.1,45v2.3h1.6v1.1h-1.6v4.8c0,0.4,0.1,0.6,0.4,0.6c0.3,0,0.5,0,0.8,0h0.4V55h-1.1c-1.5,0-1.8-0.4-1.8-1.6   v-5h-1.4v-1.1h1.4V45H168.1z"></path>
	<path class="st2" d="M173.2,44.4v1.5h-1.3v-1.5H173.2z M173.2,47.3V55h-1.3v-7.7H173.2z"></path>
	<path class="st2" d="M183.2,51.1c0,2.4-1.5,4-3.9,4c-2.3,0-3.9-1.6-3.9-4s1.5-4,3.9-4C181.7,47.1,183.2,48.8,183.2,51.1z M179.3,54   c1.4,0,2.5-1.2,2.5-2.9s-1.1-2.9-2.5-2.9c-1.4,0-2.5,1.1-2.5,2.9C176.8,52.9,177.8,54,179.3,54z"></path>
	<path class="st2" d="M191.9,49.9V55h-1.3v-5.3c0-0.8-0.6-1.5-1.6-1.5c-1.5,0-2.4,1-2.4,2.4V55h-1.3v-7.7h1.2v1.2h0   c0.6-1,1.4-1.4,2.6-1.4C191.1,47.1,191.9,48.1,191.9,49.9z"></path>
	<path class="st2" d="M200.5,49.5h-1.3v0c-0.1-0.8-0.8-1.3-1.9-1.3s-1.7,0.4-1.7,1c0,0.6,0.5,0.9,1.6,1.1l1.2,0.3   c1.5,0.3,2.4,1,2.4,2.1c0,1.5-1.3,2.4-3.4,2.4c-2,0-3.3-0.9-3.4-2.6h1.3c0,1,0.8,1.5,2.2,1.5c1.3,0,1.9-0.4,1.9-1.1   c0-0.3-0.2-0.6-0.5-0.8c-0.3-0.2-1-0.4-2-0.6c-2.1-0.4-2.7-1-2.7-2.2c0-1.4,1.3-2.2,3-2.2C199.4,47.1,200.4,47.9,200.5,49.5z"></path>
</g>
<rect x="1.1" y="14.2" class="st2" width="5.8" height="20.9"></rect>
<rect x="109.6" y="14.2" class="st2" width="5.8" height="20.9"></rect>
</svg>
